<svg xmlns="http://www.w3.org/2000/svg" width="1024" height="1024" viewBox="0 0 1024 1024">
<rect width="1024" height="1024" fill="#F9F4D9"/>
<line x1="85" y1="0" x2="85" y2="1024" stroke="#1A3A6E" stroke-opacity="0.1" stroke-width="2"/>
<line x1="170" y1="0" x2="170" y2="1024" stroke="#1A3A6E" stroke-opacity="0.1" stroke-width="2"/>
<line x1="255" y1="0" x2="255" y2="1024" stroke="#1A3A6E" stroke-opacity="0.1" stroke-width="2"/>
<line x1="340" y1="0" x2="340" y2="1024" stroke="#1A3A6E" stroke-opacity="0.1" stroke-width="2"/>
<line x1="425" y1="0" x2="425" y2="1024" stroke="#1A3A6E" stroke-opacity="0.1" stroke-width="2"/>
<line x1="510" y1="0" x2="510" y2="1024" stroke="#1A3A6E" stroke-opacity="0.1" stroke-width="2"/>
<line x1="595" y1="0" x2="595" y2="1024" stroke="#1A3A6E" stroke-opacity="0.1" stroke-width="2"/>
<line x1="680" y1="0" x2="680" y2="1024" stroke="#1A3A6E" stroke-opacity="0.1" stroke-width="2"/>
<line x1="765" y1="0" x2="765" y2="1024" stroke="#1A3A6E" stroke-opacity="0.1" stroke-width="2"/>
<line x1="850" y1="0" x2="850" y2="1024" stroke="#1A3A6E" stroke-opacity="0.1" stroke-width="2"/>
<line x1="935" y1="0" x2="935" y2="1024" stroke="#1A3A6E" stroke-opacity="0.1" stroke-width="2"/>
<line x1="1020" y1="0" x2="1020" y2="1024" stroke="#1A3A6E" stroke-opacity="0.1" stroke-width="2"/>
<line x1="0" y1="85" x2="1024" y2="85" stroke="#1A3A6E" stroke-opacity="0.1" stroke-width="2"/>
<line x1="0" y1="170" x2="1024" y2="170" stroke="#1A3A6E" stroke-opacity="0.1" stroke-width="2"/>
<line x1="0" y1="255" x2="1024" y2="255" stroke="#1A3A6E" stroke-opacity="0.1" stroke-width="2"/>
<line x1="0" y1="340" x2="1024" y2="340" stroke="#1A3A6E" stroke-opacity="0.1" stroke-width="2"/>
<line x1="0" y1="425" x2="1024" y2="425" stroke="#1A3A6E" stroke-opacity="0.1" stroke-width="2"/>
<line x1="0" y1="510" x2="1024" y2="510" stroke="#1A3A6E" stroke-opacity="0.1" stroke-width="2"/>
<line x1="0" y1="595" x2="1024" y2="595" stroke="#1A3A6E" stroke-opacity="0.1" stroke-width="2"/>
<line x1="0" y1="680" x2="1024" y2="680" stroke="#1A3A6E" stroke-opacity="0.1" stroke-width="2"/>
<line x1="0" y1="765" x2="1024" y2="765" stroke="#1A3A6E" stroke-opacity="0.1" stroke-width="2"/>
<line x1="0" y1="850" x2="1024" y2="850" stroke="#1A3A6E" stroke-opacity="0.1" stroke-width="2"/>
<line x1="0" y1="935" x2="1024" y2="935" stroke="#1A3A6E" stroke-opacity="0.1" stroke-width="2"/>
<line x1="0" y1="1020" x2="1024" y2="1020" stroke="#1A3A6E" stroke-opacity="0.1" stroke-width="2"/>
<g transform="translate(93.8,141.4) scale(34)">
<path d="M6.5,15.4 H17.5 V16.6 H6.5 Z" fill="#1A3A6E"/>
<path d="M5,13.4 H7 V18.6 H5 Z" fill="#1A3A6E"/>
<path d="M17,13.4 H19 V18.6 H17 Z" fill="#1A3A6E"/>
<path d="M3.3,14.5 H5 V17.5 H3.3 Z" fill="#1A3A6E"/>
<path d="M19,14.5 H20.7 V17.5 H19 Z" fill="#1A3A6E"/>
<path d="M21.31,4.81 L19.69,3.19 L12.29,10.59 L13.91,12.21 Z" fill="#1A3A6E"/>
<path d="M12.29,10.59 L13.91,12.21 L11.7,12.8 Z" fill="#1A3A6E"/>
</g>
</svg>
